@startuml

interface BaseDataSetInterface {
  +<<create>>from_format(format: BaseDataFormat)
  +to_format(format: BaseDataFormat)
  +get_storage_format()
  +persist()
}

BaseDataSetInterface <|-- StructuredDataSetInterface
BaseDataSetInterface <|-- SemiStructuredDataSetInterface
BaseDataSetInterface <|-- FileDataSetInterface

interface StructuredDataSetInterface {
  +<<create>>from_format(format: StructuredDataFormat)
  +to_format(format: StructuredDataFormat)
}

interface SemiStructuredDataSetInterface {
  +<<create>>from_format(format: SemiStructuredDataFormat)
  +to_format(format: SemiStructuredDataFormat)
}

interface FileDataSetInterface {
  +<<create>>from_format(format: FileFormat)
  +to_format(format: FileFormat)
}

StructuredDataSetInterface <|-- StructuredDataset
SemiStructuredDataSetInterface <|-- SemiStructuredDataset
FileDataSetInterface <|-- FileDataset


enum BaseDataFormat << (E,green) Enum >> {
  UNDEFINED
}

enum StructuredDataFormat << (E,green) Enum >> {
  PARQUET
  CSV
  JSONL
  PD_DATAFRAME
}

enum SemiStructuredDataFormat << (E,green) Enum >> {
  JSONL
}

enum FileFormat << (E,green) Enum >> {
  PATH
  PATH_LIST
}

BaseDataFormat <|-- StructuredDataFormat
BaseDataFormat <|-- SemiStructuredDataFormat
BaseDataFormat <|-- FileFormat

BaseDataSetInterface .right.|> BaseDataFormat : uses (defines return type)

@enduml
